<svg width="209" height="60" viewBox="0 0 209 60" fill="none" xmlns="http://www.w3.org/2000/svg">
<path d="M3.264 48V14.112H8.64L21.984 34.896H19.248L32.544 14.112H37.968V48H30.432V26.832L31.776 27.168L23.088 40.704H18.096L9.456 27.168L10.752 26.832V48H3.264ZM55.3151 48.528C52.7871 48.528 50.5311 48.016 48.5471 46.992C46.5951 45.936 45.0591 44.48 43.9391 42.624C42.8191 40.768 42.2591 38.672 42.2591 36.336C42.2591 34 42.8031 31.92 43.8911 30.096C45.0111 28.24 46.5151 26.784 48.4031 25.728C50.2911 24.672 52.4191 24.144 54.7871 24.144C57.0911 24.144 59.1231 24.64 60.8831 25.632C62.6431 26.624 64.0191 28 65.0111 29.76C66.0351 31.52 66.5471 33.536 66.5471 35.808C66.5471 36.224 66.5151 36.672 66.4511 37.152C66.4191 37.6 66.3391 38.128 66.2111 38.736L46.0991 38.784V33.744L63.0911 33.696L59.9231 35.808C59.8911 34.464 59.6831 33.36 59.2991 32.496C58.9151 31.6 58.3391 30.928 57.5711 30.48C56.8351 30 55.9231 29.76 54.8351 29.76C53.6831 29.76 52.6751 30.032 51.8111 30.576C50.9791 31.088 50.3231 31.824 49.8431 32.784C49.3951 33.744 49.1711 34.912 49.1711 36.288C49.1711 37.664 49.4111 38.848 49.8911 39.84C50.4031 40.8 51.1071 41.552 52.0031 42.096C52.9311 42.608 54.0191 42.864 55.2671 42.864C56.4191 42.864 57.4591 42.672 58.3871 42.288C59.3151 41.872 60.1311 41.264 60.8351 40.464L64.8671 44.496C63.7151 45.84 62.3231 46.848 60.6911 47.52C59.0591 48.192 57.2671 48.528 55.3151 48.528ZM81.612 48.528C79.084 48.528 76.828 48.016 74.844 46.992C72.892 45.936 71.356 44.48 70.236 42.624C69.116 40.768 68.556 38.672 68.556 36.336C68.556 34 69.1 31.92 70.188 30.096C71.308 28.24 72.812 26.784 74.7 25.728C76.588 24.672 78.716 24.144 81.084 24.144C83.388 24.144 85.42 24.64 87.18 25.632C88.94 26.624 90.316 28 91.308 29.76C92.332 31.52 92.844 33.536 92.844 35.808C92.844 36.224 92.812 36.672 92.748 37.152C92.716 37.6 92.636 38.128 92.508 38.736L72.396 38.784V33.744L89.388 33.696L86.22 35.808C86.188 34.464 85.98 33.36 85.596 32.496C85.212 31.6 84.636 30.928 83.868 30.48C83.132 30 82.22 29.76 81.132 29.76C79.98 29.76 78.972 30.032 78.108 30.576C77.276 31.088 76.62 31.824 76.14 32.784C75.692 33.744 75.468 34.912 75.468 36.288C75.468 37.664 75.708 38.848 76.188 39.84C76.7 40.8 77.404 41.552 78.3 42.096C79.228 42.608 80.316 42.864 81.564 42.864C82.716 42.864 83.756 42.672 84.684 42.288C85.612 41.872 86.428 41.264 87.132 40.464L91.164 44.496C90.012 45.84 88.62 46.848 86.988 47.52C85.356 48.192 83.564 48.528 81.612 48.528ZM99.1853 48V15.024H106.529V48H99.1853ZM93.9053 30.912V24.672H111.809V30.912H93.9053ZM115.045 48V24.672H122.389V48H115.045ZM118.741 21.456C117.589 21.456 116.629 21.072 115.861 20.304C115.125 19.504 114.757 18.544 114.757 17.424C114.757 16.272 115.125 15.312 115.861 14.544C116.629 13.776 117.589 13.392 118.741 13.392C119.893 13.392 120.837 13.776 121.573 14.544C122.309 15.312 122.677 16.272 122.677 17.424C122.677 18.544 122.309 19.504 121.573 20.304C120.837 21.072 119.893 21.456 118.741 21.456Z" fill="#22A6B3"/>
<path d="M142.969 48V34.704C142.969 33.488 142.585 32.512 141.817 31.776C141.081 31.008 140.137 30.624 138.985 30.624C138.185 30.624 137.481 30.8 136.873 31.152C136.265 31.472 135.785 31.952 135.433 32.592C135.081 33.2 134.905 33.904 134.905 34.704L132.073 33.312C132.073 31.488 132.473 29.888 133.273 28.512C134.073 27.136 135.177 26.08 136.585 25.344C138.025 24.576 139.641 24.192 141.433 24.192C143.161 24.192 144.681 24.608 145.993 25.44C147.337 26.24 148.393 27.312 149.161 28.656C149.929 30 150.313 31.472 150.313 33.072V48H142.969ZM127.561 48V24.672H134.905V48H127.561ZM164.918 58.464C162.358 58.464 160.102 58.016 158.15 57.12C156.23 56.256 154.71 55.024 153.59 53.424L158.102 48.912C158.934 49.904 159.862 50.656 160.886 51.168C161.942 51.68 163.206 51.936 164.678 51.936C166.502 51.936 167.926 51.488 168.95 50.592C170.006 49.696 170.534 48.432 170.534 46.8V40.848L171.782 35.76L170.678 30.672V24.672H177.878V46.608C177.878 49.008 177.318 51.088 176.198 52.848C175.078 54.608 173.542 55.984 171.59 56.976C169.638 57.968 167.414 58.464 164.918 58.464ZM164.582 47.28C162.438 47.28 160.534 46.768 158.87 45.744C157.206 44.72 155.894 43.328 154.934 41.568C153.974 39.808 153.494 37.856 153.494 35.712C153.494 33.536 153.974 31.584 154.934 29.856C155.894 28.096 157.206 26.72 158.87 25.728C160.534 24.704 162.438 24.192 164.582 24.192C166.182 24.192 167.606 24.496 168.854 25.104C170.134 25.68 171.158 26.512 171.926 27.6C172.726 28.656 173.174 29.888 173.27 31.296V40.176C173.174 41.552 172.726 42.784 171.926 43.872C171.158 44.928 170.134 45.76 168.854 46.368C167.574 46.976 166.15 47.28 164.582 47.28ZM165.974 40.752C166.998 40.752 167.878 40.528 168.614 40.08C169.382 39.632 169.958 39.04 170.342 38.304C170.758 37.536 170.966 36.672 170.966 35.712C170.966 34.752 170.758 33.888 170.342 33.12C169.958 32.352 169.382 31.744 168.614 31.296C167.878 30.848 166.998 30.624 165.974 30.624C164.982 30.624 164.102 30.848 163.334 31.296C162.566 31.744 161.974 32.352 161.558 33.12C161.142 33.888 160.934 34.752 160.934 35.712C160.934 36.608 161.142 37.456 161.558 38.256C161.974 39.024 162.55 39.632 163.286 40.08C164.054 40.528 164.95 40.752 165.974 40.752ZM194.293 48.528C191.893 48.528 189.717 48 187.765 46.944C185.845 45.856 184.325 44.384 183.205 42.528C182.085 40.672 181.525 38.592 181.525 36.288C181.525 33.984 182.085 31.92 183.205 30.096C184.325 28.272 185.845 26.832 187.765 25.776C189.685 24.688 191.861 24.144 194.293 24.144C196.725 24.144 198.901 24.672 200.821 25.728C202.741 26.784 204.261 28.24 205.381 30.096C206.501 31.92 207.061 33.984 207.061 36.288C207.061 38.592 206.501 40.672 205.381 42.528C204.261 44.384 202.741 45.856 200.821 46.944C198.901 48 196.725 48.528 194.293 48.528ZM194.293 41.856C195.349 41.856 196.277 41.632 197.077 41.184C197.877 40.704 198.485 40.048 198.901 39.216C199.349 38.352 199.573 37.376 199.573 36.288C199.573 35.2 199.349 34.256 198.901 33.456C198.453 32.624 197.829 31.984 197.029 31.536C196.261 31.056 195.349 30.816 194.293 30.816C193.269 30.816 192.357 31.056 191.557 31.536C190.757 31.984 190.133 32.624 189.685 33.456C189.237 34.288 189.013 35.248 189.013 36.336C189.013 37.392 189.237 38.352 189.685 39.216C190.133 40.048 190.757 40.704 191.557 41.184C192.357 41.632 193.269 41.856 194.293 41.856Z" fill="#FF0C81"/>
<circle cx="203.5" cy="10" r="5.5" fill="black"/>
</svg>
